<svg xmlns="https://www.w3.org/2000/svg">
    <svg id="list" width="31" height="31" viewBox="0 0 31 31" fill="none">
        <path d="M3.52271 7.04548H27.4773C29.4203 7.04548 31 5.46508 31 3.52277C31 1.58047 29.4203 0 27.4773 0H3.52271C1.57975 0 0 1.58041 0 3.52271C0 5.46501 1.57975 7.04548 3.52271 7.04548Z" fill="#333333"/>
        <path d="M27.4773 11.9773H3.52271C1.57975 11.9773 0 13.5577 0 15.5C0 17.4424 1.57975 19.0228 3.52271 19.0228H27.4773C29.4203 19.0228 31 17.4423 31 15.5C31 13.5577 29.4203 11.9773 27.4773 11.9773Z" fill="#333333"/>
        <path d="M27.4773 23.9546H3.52271C1.57975 23.9546 0 25.535 0 27.4773C0 29.4196 1.57975 31 3.52271 31H27.4773C29.4203 31 31 29.4196 31 27.4773C31 25.535 29.4203 23.9546 27.4773 23.9546Z" fill="#333333"/>
    </svg>
    <svg id="grid" viewBox="0 0 32 32" fill="none">
        <g clip-path="url(#clip0)">
            <path d="M4.14815 31.9039C6.43911 31.9039 8.2963 30.0467 8.2963 27.7558C8.2963 25.4648 6.43911 23.6076 4.14815 23.6076C1.85719 23.6076 0 25.4648 0 27.7558C0 30.0467 1.85719 31.9039 4.14815 31.9039Z" fill="#031772"/>
            <path d="M15.904 31.9039C18.195 31.9039 20.0522 30.0467 20.0522 27.7558C20.0522 25.4648 18.195 23.6076 15.904 23.6076C13.613 23.6076 11.7559 25.4648 11.7559 27.7558C11.7559 30.0467 13.613 31.9039 15.904 31.9039Z" fill="#031772"/>
            <path d="M27.6596 31.9039C29.9506 31.9039 31.8078 30.0467 31.8078 27.7558C31.8078 25.4648 29.9506 23.6076 27.6596 23.6076C25.3687 23.6076 23.5115 25.4648 23.5115 27.7558C23.5115 30.0467 25.3687 31.9039 27.6596 31.9039Z" fill="#031772"/>
            <path d="M4.14815 20.1481C6.43911 20.1481 8.2963 18.2909 8.2963 16C8.2963 13.709 6.43911 11.8518 4.14815 11.8518C1.85719 11.8518 0 13.709 0 16C0 18.2909 1.85719 20.1481 4.14815 20.1481Z" fill="#031772"/>
            <path d="M27.6596 20.1481C29.9506 20.1481 31.8078 18.2909 31.8078 16C31.8078 13.709 29.9506 11.8518 27.6596 11.8518C25.3687 11.8518 23.5115 13.709 23.5115 16C23.5115 18.2909 25.3687 20.1481 27.6596 20.1481Z" fill="#031772"/>
            <path d="M15.904 20.1481C18.195 20.1481 20.0522 18.2909 20.0522 16C20.0522 13.709 18.195 11.8518 15.904 11.8518C13.613 11.8518 11.7559 13.709 11.7559 16C11.7559 18.2909 13.613 20.1481 15.904 20.1481Z" fill="#031772"/>
            <path d="M4.14815 8.39237C6.43911 8.39237 8.2963 6.53518 8.2963 4.24422C8.2963 1.95326 6.43911 0.0960693 4.14815 0.0960693C1.85719 0.0960693 0 1.95326 0 4.24422C0 6.53518 1.85719 8.39237 4.14815 8.39237Z" fill="#031772"/>
            <path d="M15.904 8.39237C18.195 8.39237 20.0522 6.53518 20.0522 4.24422C20.0522 1.95326 18.195 0.0960693 15.904 0.0960693C13.613 0.0960693 11.7559 1.95326 11.7559 4.24422C11.7559 6.53518 13.613 8.39237 15.904 8.39237Z" fill="#031772"/>
            <path d="M27.6596 8.39237C29.9506 8.39237 31.8078 6.53518 31.8078 4.24422C31.8078 1.95326 29.9506 0.0960693 27.6596 0.0960693C25.3687 0.0960693 23.5115 1.95326 23.5115 4.24422C23.5115 6.53518 25.3687 8.39237 27.6596 8.39237Z" fill="#031772"/>
        </g>
        <defs>
            <clipPath id="clip0">
                <rect width="32" height="32" fill="white"/>
            </clipPath>
        </defs>
    </svg>
</svg>